inDegrees=yes
name=ik_S49_A04_T01
DataType=double
version=3
OpenSimVersion=4.3-2021-08-27-4bc7ad9
endheader
time	pelvis_tilt	pelvis_list	pelvis_rotation	pelvis_tx	pelvis_ty	pelvis_tz	hip_flexion_r	hip_adduction_r	hip_rotation_r	knee_angle_r	knee_angle_r_beta	ankle_angle_r	subtalar_angle_r	mtp_angle_r	hip_flexion_l	hip_adduction_l	hip_rotation_l	knee_angle_l	knee_angle_l_beta	ankle_angle_l	subtalar_angle_l	mtp_angle_l	lumbar_extension	lumbar_bending	lumbar_rotation	arm_flex_r	arm_add_r	arm_rot_r	elbow_flex_r	pro_sup_r	wrist_flex_r	wrist_dev_r	arm_flex_l	arm_add_l	arm_rot_l	elbow_flex_l	pro_sup_l	wrist_flex_l	wrist_dev_l
19.45999999999967	-10.26986847948725	-6.280894798696909	29.23435439875957	0	0.9399999999999999	0	64.32146611960511	-5.002714453496036	-7.847313804633254	62.06371303219618	1.083216138424737	0	0	0	67.54643580728816	-4.882213435375347	-12.08496593778507	63.68950412890903	1.111591546011986	0	0	0	0	0	0	33.66998276264238	-33.66998276264238	4.56936422160996	79.13662571264223	85.43063603341119	0	0	33.66998276264238	-33.66998276264238	4.56936422160996	79.13662571264223	85.43063603333097	0	0
19.47999999999967	-9.814522540845601	-6.078569487772796	29.27815268459826	0	0.9399999999999999	0	64.94749358340042	-4.967046083065355	-7.623431856340567	63.11786506752186	1.10161456225777	0	0	0	68.15265716881792	-4.869417530813687	-11.79982425726473	64.73254058823102	1.129795966445498	0	0	0	0	0	0	33.67278429787373	-33.67278429787373	4.569577145537902	79.13953573730396	85.4304231094937	0	0	33.67278429787373	-33.67278429787373	4.569577145537902	79.13953573730396	85.43042310941351	0	0
19.49999999999967	-9.293131114705949	-5.848917571439903	29.24632081460543	0	0.9399999999999999	0	65.47759303972042	-4.809645162151328	-7.433782779570128	64.08749490031154	1.118537795365512	0	0	0	68.70265402140092	-4.943154493641766	-11.53007106629959	65.85572084895834	1.149399160088598	0	0	0	0	0	0	33.67559751655744	-33.67559751655744	4.569790914001001	79.1424572890171	85.43020934104115	0	0	33.67559751655744	-33.67559751655744	4.569790914001001	79.1424572890171	85.43020934096096	0	0
19.51999999999967	-8.714358260933075	-5.630717955302364	29.19518689133404	0	0.9399999999999999	0	65.96490258274675	-4.636324702964457	-7.240600959981576	65.04955353140033	1.13532888607524	0	0	0	69.15222267977992	-5.050750196275844	-11.35960285557649	66.71869039064278	1.164460819935418	0	0	0	0	0	0	33.67815358280667	-33.67815358280667	4.569985065200121	79.14511071471725	85.4300151898516	0	0	33.67815358280667	-33.67815358280667	4.569985065200121	79.14511071471725	85.43001518977142	0	0
19.53999999999967	-7.766662666986628	-5.275158190502288	29.1576998726213	0	0.9399999999999999	0	65.99065896643859	-4.468059867186542	-7.069296961656845	65.92492087170115	1.150606928327915	0	0	0	68.15798612232012	-5.213143245753218	-11.27698960270815	66.59535121094953	1.162308145153062	0	0	0	0	0	0	33.68110660503499	-33.68110660503499	4.570209124100255	79.14817283768825	85.42979113096256	0	0	33.68110660503499	-33.68110660503499	4.570209124100255	79.14817283768825	85.42979113088239	0	0
19.55999999999967	-7.771020539766627	-5.278600773201806	29.15469845497103	0	0.9399999999999999	0	67.01599530404729	-4.503984245932682	-6.874712620969829	66.94937608119102	1.168487044772722	0	0	0	69.23799352136014	-5.204134568921577	-11.134274029859	67.5362451902693	1.178729843004384	0	0	0	0	0	0	33.68367536796898	-33.68367536796898	4.570404060688888	79.15083695508579	85.42959619438361	0	0	33.68367536796898	-33.68367536796898	4.570404060688888	79.15083695508579	85.42959619430346	0	0
19.57999999999967	-7.15644180725484	-5.044108226325887	29.13189441013686	0	0.9399999999999999	0	66.36346419348342	-4.401336672410093	-6.917658014461687	66.95105477553852	1.16851634351622	0	0	0	69.60794325818308	-5.348036087003203	-10.98643350436483	68.38129130573407	1.193478680050432	0	0	0	0	0	0	33.68708404517567	-33.68708404517567	4.570662745934153	79.15437228915017	85.42933750915111	0	0	33.68708404517567	-33.68708404517567	4.570662745934153	79.15437228915017	85.42933750907099	0	0
19.59999999999967	-5.386156725590475	-4.357406369241314	29.04934778650192	0	0.9399999999999999	0	66.36165838629078	-4.105133787614988	-6.79630959587565	68.05140746844748	1.187721120940668	0	0	0	68.76388624296624	-5.627680919220931	-10.63310040082242	69.19850109864274	1.207741681616229	0	0	0	0	0	0	33.74439700591451	-33.74439700591451	4.57436766675698	79.20490917187901	85.42563258850704	0	0	33.74439700591451	-33.74439700591451	4.57436766675698	79.20490917187901	85.4256325884275	0	0
